<?xml version="1.0" standalone="no"?>
<svg xmlns:xlink="http://www.w3.org/1999/xlink" id="wave" style="transform:rotate(0deg); transition: 0.3s" viewBox="0 0 1440 410" version="1.1" xmlns="http://www.w3.org/2000/svg"><defs><linearGradient id="sw-gradient-0" x1="0" x2="0" y1="1" y2="0"><stop stop-color="rgba(0, 255, 254.136, 1)" offset="0%"/><stop stop-color="rgba(253.093, 253.093, 253.093, 1)" offset="100%"/></linearGradient></defs><path style="transform:translate(0, 0px); opacity:1" fill="url(#sw-gradient-0)" d="M0,0L40,20.5C80,41,160,82,240,102.5C320,123,400,123,480,102.5C560,82,640,41,720,61.5C800,82,880,164,960,211.8C1040,260,1120,273,1200,259.7C1280,246,1360,205,1440,218.7C1520,232,1600,301,1680,314.3C1760,328,1840,287,1920,246C2000,205,2080,164,2160,184.5C2240,205,2320,287,2400,328C2480,369,2560,369,2640,321.2C2720,273,2800,178,2880,129.8C2960,82,3040,82,3120,129.8C3200,178,3280,273,3360,314.3C3440,355,3520,342,3600,328C3680,314,3760,301,3840,246C3920,191,4000,96,4080,82C4160,68,4240,137,4320,164C4400,191,4480,178,4560,177.7C4640,178,4720,191,4800,198.2C4880,205,4960,205,5040,211.8C5120,219,5200,232,5280,205C5360,178,5440,109,5520,102.5C5600,96,5680,150,5720,177.7L5760,205L5760,410L5720,410C5680,410,5600,410,5520,410C5440,410,5360,410,5280,410C5200,410,5120,410,5040,410C4960,410,4880,410,4800,410C4720,410,4640,410,4560,410C4480,410,4400,410,4320,410C4240,410,4160,410,4080,410C4000,410,3920,410,3840,410C3760,410,3680,410,3600,410C3520,410,3440,410,3360,410C3280,410,3200,410,3120,410C3040,410,2960,410,2880,410C2800,410,2720,410,2640,410C2560,410,2480,410,2400,410C2320,410,2240,410,2160,410C2080,410,2000,410,1920,410C1840,410,1760,410,1680,410C1600,410,1520,410,1440,410C1360,410,1280,410,1200,410C1120,410,1040,410,960,410C880,410,800,410,720,410C640,410,560,410,480,410C400,410,320,410,240,410C160,410,80,410,40,410L0,410Z"/><defs><linearGradient id="sw-gradient-1" x1="0" x2="0" y1="1" y2="0"><stop stop-color="rgba(47.742, 114.107, 203.004, 1)" offset="0%"/><stop stop-color="rgba(11, 197.961, 255, 1)" offset="100%"/></linearGradient></defs><path style="transform:translate(0, 50px); opacity:0.9" fill="url(#sw-gradient-1)" d="M0,82L40,68.3C80,55,160,27,240,34.2C320,41,400,82,480,109.3C560,137,640,150,720,177.7C800,205,880,246,960,246C1040,246,1120,205,1200,205C1280,205,1360,246,1440,252.8C1520,260,1600,232,1680,211.8C1760,191,1840,178,1920,164C2000,150,2080,137,2160,143.5C2240,150,2320,178,2400,164C2480,150,2560,96,2640,61.5C2720,27,2800,14,2880,6.8C2960,0,3040,0,3120,13.7C3200,27,3280,55,3360,102.5C3440,150,3520,219,3600,266.5C3680,314,3760,342,3840,355.3C3920,369,4000,369,4080,328C4160,287,4240,205,4320,157.2C4400,109,4480,96,4560,129.8C4640,164,4720,246,4800,287C4880,328,4960,328,5040,280.2C5120,232,5200,137,5280,116.2C5360,96,5440,150,5520,170.8C5600,191,5680,178,5720,170.8L5760,164L5760,410L5720,410C5680,410,5600,410,5520,410C5440,410,5360,410,5280,410C5200,410,5120,410,5040,410C4960,410,4880,410,4800,410C4720,410,4640,410,4560,410C4480,410,4400,410,4320,410C4240,410,4160,410,4080,410C4000,410,3920,410,3840,410C3760,410,3680,410,3600,410C3520,410,3440,410,3360,410C3280,410,3200,410,3120,410C3040,410,2960,410,2880,410C2800,410,2720,410,2640,410C2560,410,2480,410,2400,410C2320,410,2240,410,2160,410C2080,410,2000,410,1920,410C1840,410,1760,410,1680,410C1600,410,1520,410,1440,410C1360,410,1280,410,1200,410C1120,410,1040,410,960,410C880,410,800,410,720,410C640,410,560,410,480,410C400,410,320,410,240,410C160,410,80,410,40,410L0,410Z"/><defs><linearGradient id="sw-gradient-2" x1="0" x2="0" y1="1" y2="0"><stop stop-color="rgba(62, 90.31, 243, 1)" offset="0%"/><stop stop-color="rgba(255, 255, 255, 1)" offset="100%"/></linearGradient></defs><path style="transform:translate(0, 100px); opacity:0.8" fill="url(#sw-gradient-2)" d="M0,0L40,34.2C80,68,160,137,240,170.8C320,205,400,205,480,184.5C560,164,640,123,720,109.3C800,96,880,109,960,150.3C1040,191,1120,260,1200,239.2C1280,219,1360,109,1440,54.7C1520,0,1600,0,1680,54.7C1760,109,1840,219,1920,218.7C2000,219,2080,109,2160,75.2C2240,41,2320,82,2400,102.5C2480,123,2560,123,2640,157.2C2720,191,2800,260,2880,266.5C2960,273,3040,219,3120,170.8C3200,123,3280,82,3360,68.3C3440,55,3520,68,3600,68.3C3680,68,3760,55,3840,88.8C3920,123,4000,205,4080,225.5C4160,246,4240,205,4320,198.2C4400,191,4480,219,4560,252.8C4640,287,4720,328,4800,300.7C4880,273,4960,178,5040,157.2C5120,137,5200,191,5280,239.2C5360,287,5440,328,5520,314.3C5600,301,5680,232,5720,198.2L5760,164L5760,410L5720,410C5680,410,5600,410,5520,410C5440,410,5360,410,5280,410C5200,410,5120,410,5040,410C4960,410,4880,410,4800,410C4720,410,4640,410,4560,410C4480,410,4400,410,4320,410C4240,410,4160,410,4080,410C4000,410,3920,410,3840,410C3760,410,3680,410,3600,410C3520,410,3440,410,3360,410C3280,410,3200,410,3120,410C3040,410,2960,410,2880,410C2800,410,2720,410,2640,410C2560,410,2480,410,2400,410C2320,410,2240,410,2160,410C2080,410,2000,410,1920,410C1840,410,1760,410,1680,410C1600,410,1520,410,1440,410C1360,410,1280,410,1200,410C1120,410,1040,410,960,410C880,410,800,410,720,410C640,410,560,410,480,410C400,410,320,410,240,410C160,410,80,410,40,410L0,410Z"/></svg>